<svg xmlns="http://www.w3.org/2000/svg" viewBox="0 0 100 100">
  <defs>
    <linearGradient id="bg" x1="0" y1="0" x2="1" y2="1">
      <stop offset="0" stop-color="#0a1230"/>
      <stop offset="1" stop-color="#24347e"/>
    </linearGradient>
    <linearGradient id="cup" x1="0" y1="0" x2="0" y2="1">
      <stop offset="0" stop-color="#f8fAff"/>
      <stop offset="0.55" stop-color="#8492b0"/>
      <stop offset="0.78" stop-color="#d6e0f2"/>
      <stop offset="1" stop-color="#96a3c0"/>
    </linearGradient>
  </defs>
  <rect width="100" height="100" rx="23" fill="url(#bg)"/>
  <g fill="none" stroke="url(#cup)" stroke-width="3.4">
    <path d="M35 28c-8 1-11 6-11 12s4 10 11 11"/>
    <path d="M65 28c8 1 11 6 11 12s-4 10-11 11"/>
  </g>
  <path d="M34 26h32v14a16 16 0 0 1-32 0z" fill="url(#cup)"/>
  <path d="M46 55h8l-1 13h-6z" fill="url(#cup)"/>
  <path d="M45 67h10l8 7H37z" fill="url(#cup)"/>
  <rect x="34" y="73" width="32" height="6" rx="2" fill="url(#cup)"/>
</svg>
